# Blender v3.0.1 OBJ File: 'Lobby_3.0.1_Optimized.blend'
# www.blender.org
mtllib collision.mtl
g Collection_1#__Lobby#__Lobbly_Model
v 243.279617 0.747272 -200.622864
v -219.880615 0.747272 -200.622864
v 243.279617 0.747279 112.236107
v -211.856155 0.747279 112.236107
v -155.785553 42.268707 -170.357895
v -151.826157 42.268707 -167.697495
v -76.814140 0.621355 -175.501389
v -79.388145 0.621355 -175.550888
v -41.113842 7.495549 -137.434692
v -41.094944 7.495550 -138.426498
vt 5.222095 -3.059297
vt 5.222095 3.794916
vt -4.096104 3.794914
vt -4.096104 -3.059298
vn 0.0000 1.0000 -0.0000
vc 0.5490 0.4706 0.4314 1.0000
vc 0.7059 0.6039 0.5412 1.0000
usemtl _4
f 3/1/1 1/2/1 2/3/1
fc 1 1 2
f 3/1/1 2/3/1 4/4/1
fc 1 2 1
