# Alias OBJ Model File
# Exported from SketchUp, (c) 2000-2012 Trimble Navigation Limited
# File units = inches

mtllib Untitled.mtl

g Mesh1 Model

usemtl _1
v 756.907 27.1292 -0
vt 19.0081 -0.012465
vn 0 0 1
v 669.719 27.1292 -0
vt 18.7477 -0.0110346
v 669.719 -135.131 -0
vt 18.7451 -0.495646
v 756.907 -138.871 -0
vt 19.0054 -0.508245
f 1/1/1 2/2/1 3/3/1 4/4/1 

usemtl _2
vt 3.80296 -3.86103
vn 0 1 -0
vt 4.18117 -4.36264
v 756.907 27.1292 -49.8125
vt 4.46776 -4.14655
v 669.719 27.1292 -49.8125
vt 4.08954 -3.64494
f 2/5/2 1/6/2 5/7/2 6/8/2 

usemtl _1
vt 19.011 -0.0378591
vn 1 0 -0
vt 19.0083 -0.533639
v 756.907 -138.871 -49.8125
vt 19.157 -0.534456
vt 19.1597 -0.0386763
f 1/9/3 4/10/3 7/11/3 5/12/3 

usemtl _2
v 612.182 48.8457 -0
vt 3.53618 -3.50721
vn 0.35312 0.935578 -0
v 612.182 48.8457 -49.8125
vt 3.82276 -3.29113
f 8/13/4 2/5/4 6/8/4 9/14/4 

usemtl _1
v 612.182 -134.313 -0
vt 18.4917 -0.531869
vt 18.6607 -0.500773
vt 18.5662 -0.0254477
vt 18.3851 0.00467644
f 10/15/1 3/16/1 2/17/1 8/18/1 

v 543.669 -133.339 -0
vt 18.2932 -0.591312
vt 18.4944 -0.554284
vt 18.3878 -0.017739
v 543.669 66.5008 -0
vt 18.1768 -0.00590125
f 11/19/1 10/20/1 8/21/1 12/22/1 

usemtl _2
vt 3.22926 -3.10016
vn 0.249538 0.968365 -0
v 543.669 66.5008 -49.8125
vt 3.51584 -2.88408
f 12/23/5 8/13/5 9/14/5 13/24/5 

v 479.419 66.5008 -0
vt 2.95055 -2.73052
v 479.419 66.5008 -49.8125
vt 3.23713 -2.51443
f 14/25/2 12/23/2 13/24/2 15/26/2 

usemtl _1
v 479.419 -132.426 -0
vt 18.1749 -0.601168
vt 18.3668 -0.60495
vt 18.3701 -0.00810297
vt 18.1782 -0.00704886
f 16/27/1 11/28/1 12/29/1 14/30/1 

v 424.842 -131.65 -0
vt 18.1259 -0.550934
vt 18.2845 -0.588767
vt 18.4141 -0.00895838
v 425.916 48.8457 -0
vt 18.2467 -0.0255462
f 17/31/1 16/32/1 14/33/1 18/34/1 

usemtl _2
vt 2.70614 -2.40638
vn -0.313365 0.949633 -0
v 425.916 48.8457 -49.8125
vt 2.99272 -2.1903
f 18/35/6 14/25/6 15/26/6 19/36/6 

v 384.023 27.1292 -0
vt 2.50144 -2.1349
vn -0.460216 0.887807 -0
v 384.023 27.1292 -49.8125
vt 2.78803 -1.91882
f 20/37/7 18/35/7 19/36/7 21/38/7 

usemtl _1
v 384.023 -131.069 -0
vt 18.0073 -0.522638
vt 18.1104 -0.0615382
f 22/39/1 17/31/1 18/34/1 20/40/1 

v 299.349 -129.866 -0
vt 17.7732 -0.429382
vt 18.0192 -0.488078
vt 18.1223 -0.0269784
v 299.349 12.7075 -0
vt 17.8661 -0.0138255
f 23/41/1 22/42/1 20/43/1 24/44/1 

usemtl _2
vt 2.12884 -1.64074
vn -0.167902 0.985804 -0
v 299.349 12.7075 -49.8125
vt 2.41542 -1.42465
f 24/45/8 20/37/8 21/38/8 25/46/8 

v -0.838652 12.7075 -0
vt 0.826637 0.0863047
v -0.838652 12.7075 -49.8125
vt 1.11322 0.30239
f 26/47/2 24/45/2 25/46/2 27/48/2 

usemtl _1
v -0.838652 -126.971 -0
vt 16.7441 -0.441228
vt 17.6406 -0.454799
vt 17.643 -0.028986
vt 16.7464 -0.024061
f 28/49/1 23/50/1 24/51/1 26/52/1 

g Mesh2 Model

v 829.594 -159.121 4.625
vt 19.2278 -0.630038
v 900.969 -170.013 4.625
vt 19.4408 -0.663739
v 900.969 51.8792 4.625
vt 19.4444 -0.00103152
v 829.594 51.8792 4.625
vt 19.2312 0.000139484
f 29/53/1 30/54/1 31/55/1 32/56/1 

v 900.969 -170.013 -49.8125
vt 19.6033 -0.664633
v 900.969 51.8792 -49.8125
vt 19.607 -0.00192464
f 33/57/3 34/58/3 31/55/3 30/54/3 

usemtl _2
vt 5.89834 4.1429
v 829.594 51.8792 -49.8125
vt 5.48771 3.83328
vt 5.72386 3.52009
vt 6.13449 3.82971
f 34/59/2 35/60/2 32/61/2 31/62/2 

usemtl _1
vt 19.0686 0.0010326
vn -1 0 -0
v 829.594 -159.121 -49.8125
vt 19.0652 -0.629145
f 35/63/9 36/64/9 29/53/9 32/56/9 

g Mesh3 Model

v 962.129 -189.389 2.34482
vt 19.623 -0.852711
v 1033.5 -188.281 2.34482
vt 19.8361 -0.850573
v 1033.5 93.1114 2.34482
vt 19.8408 -0.0101609
v 962.129 93.1114 2.34482
vt 19.6276 -0.00898991
f 37/65/1 38/66/1 39/67/1 40/68/1 

v 1033.5 -188.281 -52.0927
vt 19.9987 -0.851466
v 1033.5 93.1114 -52.0927
vt 20.0033 -0.011054
f 41/69/3 42/70/3 39/67/3 38/66/3 

usemtl _2
vt 6.65096 4.73096
v 962.129 93.1114 -52.0927
vt 6.24032 4.42133
vt 6.47647 4.10814
vt 6.8871 4.41777
f 42/71/2 43/72/2 40/73/2 39/74/2 

usemtl _1
vt 19.465 -0.00809679
v 962.129 -189.389 -52.0927
vt 19.4604 -0.851818
f 43/75/9 44/76/9 37/65/9 40/68/9 

g Mesh4 Model

v 1290.83 -135.514 2.34482
vt 20.7869 -0.90271
vn 5.3871e-16 2.46797e-17 1
v 1313.49 18.3302 2.34482
vt 20.7351 -0.395742
v 1337.06 134.325 2.34482
vt 20.7167 -0.00828162
v 1217.5 164.424 2.34482
vt 20.3126 -0.00885372
v 1177.13 48.4428 2.34482
vt 20.2777 -0.409788
v 1217.5 -135.514 2.34482
vt 20.5539 -0.961705
f 45/77/10 46/78/10 47/79/10 48/80/10 49/81/10 50/82/10 

vt 20.5652 -0.402539
vn 0.989325 -0.145729 1.05015e-16
vt 20.1811 -0.750876
v 1290.83 -135.514 -57.4677
vt 20.3151 -0.898611
v 1313.49 18.3302 -57.4677
vt 20.6992 -0.550274
f 46/83/11 45/84/11 51/85/11 52/86/11 

v 1367.98 46.7177 2.34482
vt 20.717 -0.264916
vn 0.462055 -0.886851 7.33338e-16
v 1367.98 46.7177 -57.4677
vt 20.8509 -0.412651
f 53/87/12 46/83/12 52/86/12 54/88/12 

vn 1.80564e-16 -1.33344e-16 1
vt 20.8854 -0.261723
v 1383.58 122.613 2.34482
vt 20.8739 -0.00805901
f 46/78/13 53/89/13 55/90/13 47/79/13 

v 1442.8 17.4909 2.34482
vt 20.994 -0.197431
vn -3.71498e-16 1.13921e-16 1
v 1464.13 -25.8886 2.34482
vt 21.1315 -0.276189
v 1521.07 20.7989 2.34482
vt 21.2006 -0.0450025
vt 20.6405 -0.0203679
vt 20.7372 -0.255158
v 1402.54 46.7177 2.34482
vt 20.8311 -0.191815
f 56/91/14 57/92/14 58/93/14 55/94/14 53/95/14 59/96/14 

vt 14.6298 0.688113
vn -0.897383 -0.441252 2.8517e-16
vt 14.4487 0.53653
v 1442.8 17.4909 -57.4677
vt 14.6362 0.31244
v 1464.13 -25.8886 -57.4677
vt 14.8173 0.464024
f 57/97/15 56/98/15 60/99/15 61/100/15 

vn -0.587474 -0.809243 6.66028e-16
vt 14.2623 0.380525
v 1402.54 46.7177 -57.4677
vt 14.4498 0.156435
f 56/98/16 59/101/16 62/102/16 60/99/16 

vt 14.2334 0.689444
vn 0 -1 8.25282e-16
vt 14.1039 0.581064
vt 14.2915 0.356974
vt 14.421 0.465354
f 59/103/17 53/104/17 54/105/17 62/106/17 

v 1464.13 -236.826 -57.4677
vt 21.1025 -0.84414
v 1464.13 -236.826 2.34482
vt 21.2806 -0.830265
vt 21.2316 -0.20231
vt 21.0536 -0.216185
f 63/107/9 64/108/9 57/109/9 61/110/9 

vt 21.4055 -0.0511734
vt 21.2189 -0.204157
vt 21.2188 -0.895425
v 1586.19 -109.764 2.34482
vt 21.6189 -0.479063
v 1586.19 20.7989 2.34482
vt 21.6189 -0.0511933
f 58/111/1 57/112/1 64/113/1 65/114/1 66/115/1 

vt 16.4995 0.960285
vt 16.4985 0.322401
v 1586.19 -109.764 -57.4677
vt 16.7908 0.321942
v 1586.19 20.7989 -57.4677
vt 16.7918 0.959826
f 66/116/3 65/117/3 67/118/3 68/119/3 

usemtl _2
vt 9.91525 6.70101
vn -2.72761e-17 1 -2.96988e-17
vt 10.2899 6.98352
vt 10.0305 7.32764
v 1521.07 20.7989 -57.4677
vt 9.65579 7.04513
f 58/120/18 66/121/18 68/122/18 69/123/18 

vt 8.931 5.95888
vn 0.595136 0.803625 -1.88598e-16
v 1383.58 122.613 -57.4677
vt 8.67154 6.303
f 55/124/19 58/120/19 69/123/19 70/125/19 

vt 8.655 5.75077
vn 0.244132 0.969742 -2.05213e-16
v 1217.5 164.424 -57.4677
vt 7.68623 5.56007
vt 7.9457 5.21595
f 47/126/20 55/124/20 70/125/20 71/127/20 48/128/20 

v 1115.57 164.424 2.34482
vt 7.35923 4.77375
vn 0 1 -1.99735e-16
v 1115.57 164.424 -57.4677
vt 7.09976 5.11786
f 72/129/21 48/128/21 71/127/21 73/130/21 

usemtl _1
v 1115.57 93.1114 2.34482
vt 20.0361 -0.29312
vn -1.85179e-16 4.1225e-16 1
vt 20.251 -0.41936
vt 20.346 -0.0282845
vt 20.0135 -0.0605101
f 74/131/22 49/132/22 48/133/22 72/134/22 

vt 20.2654 -0.365126
vn -0.587262 -0.809397 1.89379e-16
vt 20.0823 -0.230708
v 1115.57 93.1114 -57.4677
vt 19.9766 -0.374719
v 1177.13 48.4428 -57.4677
vt 20.1597 -0.509137
f 49/135/23 74/136/23 75/137/23 76/138/23 

vn -1 0 4.71926e-17
vt 20.0835 -0.017724
vt 19.9048 -0.0167427
vt 19.9037 -0.229726
f 74/136/24 72/139/24 73/140/24 75/141/24 

vt 20.3786 -0.886041
vn -0.976753 -0.214367 -2.13149e-17
vt 20.1283 -0.382308
vt 19.9683 -0.4618
v 1217.5 -135.514 -57.4677
vt 20.2186 -0.965533
f 50/142/25 49/143/25 76/144/25 77/145/25 

g Mesh5 Model

v 1659.38 -96.6386 -1.34268
vt 19.6882 -0.834925
v 1711.07 -108.514 -1.34268
vt 19.9227 -0.891972
v 1711.07 84.7989 -1.34268
vt 19.9339 -0.0122359
v 1659.38 84.7989 -1.34268
vt 19.6987 -0.00923095
f 78/146/1 79/147/1 80/148/1 81/149/1 

v 1711.07 -108.514 -57.4677
vt 20.1781 -0.895235
v 1711.07 84.7989 -57.4677
vt 20.1894 -0.0154988
f 82/150/3 83/151/3 80/148/3 79/147/3 

usemtl _2
vt 12.9066 9.49623
v 1659.38 84.7989 -57.4677
vt 12.6092 9.27201
vt 12.8527 8.94912
vt 13.15 9.17333
f 83/152/2 84/153/2 81/154/2 80/155/2 

usemtl _1
vt 19.4433 -0.00596804
v 1659.38 -96.6386 -57.4677
vt 19.4328 -0.831663
f 84/156/9 85/157/9 78/146/9 81/149/9 

g Mesh6 Model

usemtl _2
v 2995.82 180.424 -57.4677
vt 15.2754 11.2824
v 2824.69 180.424 -57.4677
vt 14.2909 10.5401
v 2824.69 180.424 -5.03018
vt 14.5184 10.2384
v 2995.82 180.424 -5.03018
vt 15.5029 10.9807
f 86/158/2 87/159/2 88/160/2 89/161/2 

usemtl _1
vt 22.4557 -0.0119425
v 2824.69 -25.8886 -57.4677
vt 22.4523 -0.628119
v 2824.69 -140.895 -5.03018
vt 22.607 -0.972461
vt 22.6123 -0.0128028
f 87/162/9 90/163/9 91/164/9 88/165/9 

v 2824.69 -174.014 -57.4677
vt 22.4499 -1.07051
v 2824.69 -174.014 -5.03018
vt 22.6065 -1.07137
f 90/163/9 92/166/9 93/167/9 91/164/9 

v 2995.82 -140.895 -5.03018
vt 23.1181 -0.975268
vt 23.1234 -0.0156103
f 91/164/1 94/168/1 89/169/1 88/165/1 

v 3199.13 92.0489 -5.03018
vt 23.4228 -0.0279857
vt 22.7369 -0.00597931
vt 23.1039 -0.930427
v 3199.13 -115.951 -5.03018
vt 23.6604 -0.62641
f 95/170/1 89/171/1 94/172/1 96/173/1 

usemtl _2
v 3199.13 92.0489 -57.4677
vt 16.5509 12.2441
vn 0.398644 0.917106 -0
vt 16.7783 11.9424
f 97/174/26 86/158/26 89/161/26 95/175/26 

v 3216.78 85.5728 -57.4677
vt 16.659 12.3256
vn 0.344528 0.938776 9.92765e-17
v 3337.75 41.1739 -57.4677
vt 17.4004 12.8846
f 98/176/27 97/174/27 95/175/27 99/177/27 

usemtl _3
vt 295.852 74.4656
vn 2.48524e-15 -1.20262e-15 1
v 3263.15 266.753 -57.4677
vt 296.847 74.4545
v 3241.39 284.637 -57.4677
vt 296.911 74.9967
vt 295.863 74.8635
f 98/178/28 100/179/28 101/180/28 97/181/28 

usemtl _4
vt 1173.36 49.9329
vn -4.89247e-17 -3.01218e-16 1
vt 1173.56 49.6396
v 3490.13 41.1739 -57.4677
vt 1173.97 49.9667
f 100/182/29 98/183/29 102/184/29

vt 1173.77 49.7532
f 99/185/1 102/184/1 98/183/1

usemtl _2
vt 17.2427 12.7657
v 3337.75 41.1739 -5.03018
vt 17.4702 12.464
v 3490.13 41.1739 -5.03018
vt 18.3468 13.125
vt 18.1193 13.4267
f 99/186/2 103/187/2 104/188/2 102/189/2 

vt 17.6279 12.583
f 99/177/27 95/175/27 103/190/27

usemtl _1
vt 23.8797 -0.0159982
v 3337.75 -92.7636 -5.03018
vt 24.0327 -0.401341
f 103/191/1 95/170/1 96/173/1 105/192/1 

vt 24.6246 -0.0154144
vt 24.1696 -0.0129144
vt 24.1674 -0.412934
v 3490.13 -104.826 -5.03018
vt 24.6222 -0.45146
f 104/193/1 103/194/1 105/195/1 106/196/1 

v 3678.38 -93.5136 -5.03018
vt 25.1846 -0.420763
v 3678.38 41.1739 -5.03018
vt 25.1869 -0.0185028
f 106/196/1 107/197/1 108/198/1 104/193/1 

vt 25.1607 0.270569
vn 4.95513e-16 5.80133e-34 1
vt 25.1594 0.0247781
v 3793.1 136.187 -5.03018
vt 25.371 0.442809
v 3678.38 424.486 -5.03018
vt 25.1646 0.970077
f 108/199/30 107/200/30 109/201/30 110/202/30 

v 3857.71 -74.8713 -5.03018
vt 25.4868 0.0570007
vn -3.75831e-17 2.66237e-16 1
f 111/203/31 109/201/31 107/200/31

vt 25.3608 0.548755
vn 0.9562 0.292714 1.66474e-15
vt 25.4766 0.162946
v 3842.71 -25.8886 -57.4677
vt 25.5414 0.279993
v 3793.1 136.187 -57.4677
vt 25.4525 0.576263
f 109/204/32 111/205/32 112/206/32 113/207/32 

v 3842.71 262.008 -5.03018
vt 25.4526 0.777868
vn 0.930284 -0.36684 1.63285e-16
vt 25.4496 0.513162
v 3842.71 262.008 -57.4677
vt 25.5414 0.742276
f 114/208/33 109/204/33 113/209/33 115/210/33 

vt 25.4628 0.671923
vn 2.48875e-16 -9.8139e-17 1
f 114/211/34 110/202/34 109/201/34

v 3938.12 306.438 -5.03018
vt 25.6374 0.752046
vn 1.10751e-16 -2.37838e-16 1
f 116/212/35 110/202/35 114/211/35

v 4093.44 425.299 -5.03018
vt 25.922 0.967398
vn 9.38562e-19 -4.79461e-16 1
f 117/213/36 110/202/36 116/212/36

usemtl _2
vt -19.5002 21.4888
vn -0.00195753 0.999998 -1.47452e-18
v 3678.38 424.486 -57.4677
vt -18.0013 18.8734
vt -17.6996 19.1009
f 117/214/37 118/215/37 110/216/37

v 4093.44 425.299 -57.4677
vt -19.8018 21.2613
vn -0.00195753 0.999998 -3.48863e-16
v 3923.65 424.967 -57.4677
vt -19.0653 20.2845
v 3889.82 424.9 -57.4677
vt -18.9185 20.0898
f 119/217/38 120/218/38 121/219/38 118/215/38 117/214/38 

usemtl _3
vt 297.693 80.2762
vn -1.74165e-16 3.40559e-16 1
v 3839.02 563.813 -57.4677
vt 296.909 79.9454
v 3820.17 537.493 -57.4677
vt 296.985 79.3968
vt 297.623 79.6828
f 120/220/39 122/221/39 123/222/39 121/223/39 

v 3653.02 642.457 -57.4677
vt 296.456 80.3894
vt 297.433 80.2733
vt 297.447 80.9116
v 3656.95 673.875 -57.4677
vt 296.394 80.9651
f 124/224/1 123/225/1 122/226/1 125/227/1 

usemtl _4
vt 1173.69 51.0546
vn 1.76669e-16 2.81337e-16 1
vt 1173.33 50.9526
vt 1173.67 50.7135
f 123/228/40 124/229/40 118/230/40

vn -4.29313e-16 2.10841e-16 1
f 102/184/41 118/230/41 124/229/41

v 3678.38 41.1739 -57.4677
vt 1174.2 50.2305
f 126/231/1 118/230/1 102/184/1

usemtl _1
vt 25.0689 0.970602
vt 25.065 0.271095
f 110/202/9 118/232/9 126/233/9

f 110/202/9 126/233/9 108/199/9

usemtl _2
vt 19.2024 14.2433
vt 19.4298 13.9416
f 126/234/2 102/189/2 104/188/2 108/235/2 

usemtl _4
v 3490.13 578.326 -57.4677
vt 1173.21 50.6435
vn 3.48962e-16 -1.76852e-32 1
v 3490.13 213.674 -57.4677
vt 1173.73 50.1841
f 127/236/42 128/237/42 102/184/42 124/229/42 

usemtl _1
v 3490.13 1005.31 -57.4677
vt 24.4176 0.244615
v 3490.13 1005.31 -5.03018
vt 24.4662 0.244242
v 3490.13 213.674 -5.03018
vt 24.4719 0.977672
vt 24.4233 0.978046
vt 24.4207 0.640207
v 3490.13 609.493 -57.4677
vt 24.4205 0.611331
f 129/238/3 130/239/3 131/240/3 128/241/3 127/242/3 132/243/3 

vt 24.4658 0.19566
v 3461.15 1005.31 -22.6914
vt 24.4929 0.227673
f 129/244/2 133/245/2 130/239/2

v 3452.25 1005.31 -45.7882
vt 24.501 0.206211
f 129/244/2 134/246/2 133/245/2

v 3413.94 1005.31 -57.4677
vt 24.5364 0.195118
f 135/247/2 134/246/2 129/244/2

v 3439.02 1005.31 -22.6914
vt 24.5134 0.227515
f 134/246/2 135/247/2 136/248/2

v 3413.94 1005.31 -5.03018
vt 24.5368 0.243699
f 137/249/2 136/248/2 135/247/2

f 136/248/2 137/249/2 130/239/2

v 3413.94 185.216 -5.03018
vt 24.5426 1.00349
f 130/239/1 137/249/1 138/250/1 131/240/1 

v 3413.94 346.325 -57.4677
vt 24.5901 0.853859
v 3413.94 185.216 -57.4677
vt 24.5912 1.00312
vt 24.5854 0.243325
v 3413.94 374.842 -57.4677
vt 24.5899 0.827439
f 139/251/9 140/252/9 138/250/9 137/249/9 135/253/9 141/254/9 

usemtl _4
vn 3.31694e-16 7.66647e-17 1
v 3450.73 198.959 -57.4677
vt 1173.7 50.1103
vt 1173.67 50.0414
vt 1173.44 50.2444
f 100/182/43 102/184/43 142/255/43 140/256/43 139/257/43 

f 128/237/1 142/255/1 102/184/1

usemtl _2
vt -18.89 -14.4786
vn 0.349909 -0.936784 -7.28548e-17
vt -19.1159 -14.649
vt -19.3579 -14.8314
vt -18.6625 -14.7803
f 140/258/44 142/259/44 128/260/44 138/261/44 

usemtl FrontColor
vt 3413.94 185.216
vt 3450.73 198.959
vt 3413.94 346.325
f 140/262/1 142/263/1 139/264/1

usemtl _2
vn 0.349909 -0.936784 -4.09967e-17
vt -19.1304 -15.1331
f 138/261/45 128/260/45 131/265/45

usemtl _3
vt 298.189 75.9268
vn 1.62445e-15 -1.71681e-15 1
vt 297.159 75.9537
vt 297.216 75.4035
vt 298.118 75.3939
f 141/266/46 101/267/46 100/268/46 139/269/46 

usemtl _1
f 136/248/2 130/239/2 133/245/2

usemtl _6
vt 33.9328 4.52844
v 3461.15 1028.44 -22.6914
vt 33.9328 4.63263
v 3439.02 1028.44 -22.6914
vt 33.7159 4.63263
vt 33.7159 4.52844
f 133/270/1 143/271/1 144/272/1 136/273/1 

vt -11.7432 4.52844
vn 0.933207 0 -0.359341
v 3452.25 1028.44 -45.7882
vt -11.7432 4.63263
vt -11.9858 4.63263
vt -11.9858 4.52844
f 134/274/47 145/275/47 143/276/47 133/277/47 

vt -16.9524 4.52844
vn -0.867707 0 -0.497077
vt -16.9524 4.63263
vt -17.2134 4.63263
vt -17.2134 4.52844
f 136/278/48 144/279/48 145/280/48 134/281/48 

vt 33.9328 0.102213
vt 33.8456 0.206253
vt 33.7159 0.102213
f 143/282/2 145/283/2 144/284/2

vt 34.0341 4.39961
v 3499.56 1048.89 -22.6914
vt 34.2801 4.18728
vt 34.0341 4.52191
f 143/285/1 146/286/1 144/287/1

v 3512.63 1028.44 -22.6914
vt 34.0341 4.11503
f 147/288/1 146/286/1 143/285/1

v 3512.63 1107.57 -22.6914
vt 34.9861 4.11503
f 146/286/1 147/288/1 148/289/1

v 3483.33 1095.98 -22.6914
vt 34.8467 4.27699
f 146/286/1 148/289/1 149/290/1

v 3392.94 1107.57 -22.6914
vt 34.9861 4.77663
f 150/291/1 149/290/1 148/289/1

v 3424.17 1095.55 -22.6914
vt 34.8415 4.60401
f 150/291/1 151/292/1 149/290/1

v 3411.33 1075.8 -22.6914
vt 34.6038 4.67498
f 150/291/1 152/293/1 151/292/1

v 3392.94 1028.44 -22.6914
vt 34.0341 4.77663
f 153/294/1 152/293/1 150/291/1

v 3444.48 1035.21 -22.6914
vt 34.1156 4.49174
f 152/293/1 153/294/1 154/295/1

f 144/287/1 154/295/1 153/294/1

f 144/287/1 146/286/1 154/295/1

usemtl _5
v 3468.53 1077 -22.6914
vt 15.624 4.85137
vt 15.4242 4.93492
vt 15.3664 4.84593
v 3457.1 1051.37 -22.6914
vt 15.5725 4.73591
vt 15.5157 4.66313
vt 15.7638 4.72471
vt 15.6907 4.93685
f 155/296/1 151/297/1 152/298/1 156/299/1 154/300/1 146/301/1 149/302/1 

usemtl _6
vt 34.6184 4.35878
f 149/290/1 151/292/1 155/303/1

vt 34.31 4.422
f 152/293/1 154/295/1 156/304/1

usemtl _3
vt 297.05 77.3587
vn 3.53213e-16 -2.17004e-17 1
vt 297.909 77.3752
vt 297.983 77.9225
vt 297.105 77.9294
f 127/305/49 124/306/49 125/307/49 132/308/49 

usemtl _4
vt 1173.93 51.0103
vn -9.87087e-19 5.0425e-16 1
f 121/309/50 123/228/50 118/230/50

usemtl _1
v 4093.44 174.643 -5.03018
vt 25.9195 0.509976
v 4093.44 174.643 -57.4677
vt 26.0152 0.50945
vt 26.0177 0.966873
f 157/310/3 158/311/3 119/312/3 117/213/3 

vt 25.9093 0.615921
vn -0.723 -0.690848 -1.10229e-16
v 3998.02 274.507 -5.03018
vt 25.7361 0.799121
v 3998.02 274.507 -57.4677
vt 25.6666 0.733392
vt 25.8397 0.550193
f 157/313/51 159/314/51 160/315/51 158/316/51 

vn -5.95697e-16 -4.33766e-33 1
vt 25.7464 0.693175
f 157/310/52 117/213/52 159/317/52

vn -1.5027e-16 -2.81873e-16 1
f 159/317/53 117/213/53 116/212/53

vn -0.470436 -0.882434 9.37765e-17
vt 25.6272 0.857992
v 3938.12 306.438 -57.4677
vt 25.5817 0.773797
vt 25.6907 0.714926
f 159/314/54 116/318/54 161/319/54 160/320/54 

vn 0.422136 -0.906533 1.96301e-16
vt 25.4925 0.690898
vt 25.6671 0.771022
f 116/318/55 114/208/55 115/321/55 161/322/55 

g Mesh7 Model

usemtl _2
v 6233.78 363.451 -58.2305
vt 25.5673 19.0494
v 5091.72 363.451 -58.2305
vt 18.9968 14.0952
v 5091.72 363.451 -3.79299
vt 19.2329 13.782
v 6233.78 363.451 -3.79299
vt 25.8035 18.7363
f 162/323/2 163/324/2 164/325/2 165/326/2 

usemtl _1
vt 23.1202 0.988017
v 5091.72 212.669 -58.2305
vt 23.1197 0.693036
v 5091.72 212.669 -3.79299
vt 23.2262 0.692869
vt 23.2267 0.98785
f 163/327/9 166/328/9 167/329/9 164/330/9 

v 5190.74 245.491 -3.79299
vt 11.9863 11.3214
vn 0.314656 -0.949206 -5.44145e-18
vt 11.986 11.1174
vt 12.0925 11.1172
v 5190.74 245.491 -58.2305
vt 12.0928 11.3213
f 168/331/56 167/332/56 166/333/56 169/334/56 

vn -1.14819e-15 0 1
vt 23.42 0.756777
f 167/329/57 168/335/57 164/330/57

vn 1.63519e-15 2.33634e-15 1
v 5301.59 216.568 -3.79299
vt 23.6368 0.699851
f 168/335/58 170/336/58 164/330/58

vt 11.9366 -10.895
vn -0.252471 -0.967605 -8.29399e-18
vt 11.9369 -10.6709
vt 11.8304 -10.6707
v 5301.59 216.568 -58.2305
vt 11.8301 -10.8948
f 170/337/59 168/338/59 169/339/59 171/340/59 

v 5364.5 124.364 -3.79299
vt 11.9545 0.537817
vn -0.826013 -0.563651 -0
vt 11.9549 0.756194
vt 11.8484 0.756362
v 5364.5 124.364 -58.2305
vt 11.848 0.537985
f 172/341/60 170/342/60 171/343/60 173/344/60 

vt 23.7596 0.519276
vt 25.4609 0.98434
f 170/336/1 172/345/1 165/346/1

v 6233.78 -25.7537 -3.79299
vt 25.4597 0.222925
f 165/346/1 172/345/1 174/347/1

v 5364.5 -25.9993 -3.79299
vt 23.7592 0.225115
f 175/348/1 174/347/1 172/345/1

vt 11.9541 0.243654
v 5364.5 -25.9993 -58.2305
vt 11.8476 0.243822
f 175/349/9 172/341/9 173/344/9 176/350/9 

vt 23.6241 0.987225
vt 23.6229 0.225809
v 6233.78 -25.7537 -58.2305
vt 23.7294 0.225642
vt 23.7306 0.987058
f 165/351/3 174/352/3 177/353/3 162/354/3 

f 164/330/1 170/336/1 165/346/1

g Mesh8 Model

v 1983.98 -146.076 -5.03018
vt 22.6069 -0.993534
v 2031.23 -146.076 -5.03018
vt 22.748 -0.994309
v 2031.23 182.299 -5.03018
vt 22.7534 -0.013578
v 1983.98 182.299 -5.03018
f 178/355/1 179/356/1 180/357/1 181/165/1 

v 2031.23 -147.951 -57.4677
vt 23.2746 -1.0028
v 2031.23 182.299 -57.4677
vt 23.28 -0.0164706
vt 23.118 -0.996341
v 2031.23 -147.951 -5.03018
vt 23.118 -1.00194
f 182/358/3 183/359/3 180/169/3 179/360/3 184/361/3 

usemtl _2
vt 14.5628 10.745
v 1983.98 182.299 -57.4677
vt 14.7902 10.4433
f 183/362/2 185/159/2 181/160/2 180/363/2 

usemtl _1
v 1983.98 -146.076 -57.4677
vt 22.4503 -0.992673
f 185/162/9 186/364/9 178/355/9 181/165/9 

