# Alias OBJ Model File
# Exported from SketchUp, (c) 2000-2012 Trimble Navigation Limited
# File units = inches

mtllib lvl2colli.mtl

g Mesh1 Model

usemtl _1
v 756.907 27.1292 -0
vt 19.0081 -0.012465
vn 0 0 1
v 669.719 27.1292 -0
vt 18.7477 -0.0110346
v 669.719 -135.131 -0
vt 18.7451 -0.495646
v 756.907 -138.871 -0
vt 19.0054 -0.508245
f 1/1/1 2/2/1 3/3/1 4/4/1 

usemtl _2
vt 3.80296 -3.86103
vn 0 1 -0
vt 4.18117 -4.36264
v 756.907 27.1292 -49.8125
vt 4.46776 -4.14655
v 669.719 27.1292 -49.8125
vt 4.08954 -3.64494
f 2/5/2 1/6/2 5/7/2 6/8/2 

usemtl _1
vt 19.011 -0.0378591
vn 1 0 -0
vt 19.0083 -0.533639
v 756.907 -138.871 -49.8125
vt 19.157 -0.534456
vt 19.1597 -0.0386763
f 1/9/3 4/10/3 7/11/3 5/12/3 

usemtl _2
v 612.182 48.8457 -0
vt 3.53618 -3.50721
vn 0.35312 0.935578 -0
v 612.182 48.8457 -49.8125
vt 3.82276 -3.29113
f 8/13/4 2/5/4 6/8/4 9/14/4 

usemtl _1
v 612.182 -134.313 -0
vt 18.4917 -0.531869
vt 18.6607 -0.500773
vt 18.5662 -0.0254477
vt 18.3851 0.00467644
f 10/15/1 3/16/1 2/17/1 8/18/1 

v 543.669 -133.339 -0
vt 18.2932 -0.591312
vt 18.4944 -0.554284
vt 18.3878 -0.017739
v 543.669 66.5008 -0
vt 18.1768 -0.00590125
f 11/19/1 10/20/1 8/21/1 12/22/1 

usemtl _2
vt 3.22926 -3.10016
vn 0.249538 0.968365 -0
v 543.669 66.5008 -49.8125
vt 3.51584 -2.88408
f 12/23/5 8/13/5 9/14/5 13/24/5 

v 479.419 66.5008 -0
vt 2.95055 -2.73052
v 479.419 66.5008 -49.8125
vt 3.23713 -2.51443
f 14/25/2 12/23/2 13/24/2 15/26/2 

usemtl _1
v 479.419 -132.426 -0
vt 18.1749 -0.601168
vt 18.3668 -0.60495
vt 18.3701 -0.00810297
vt 18.1782 -0.00704886
f 16/27/1 11/28/1 12/29/1 14/30/1 

v 424.842 -131.65 -0
vt 18.1259 -0.550934
vt 18.2845 -0.588767
vt 18.4141 -0.00895838
v 425.916 48.8457 -0
vt 18.2467 -0.0255462
f 17/31/1 16/32/1 14/33/1 18/34/1 

usemtl _2
vt 2.70614 -2.40638
vn -0.313365 0.949633 -0
v 425.916 48.8457 -49.8125
vt 2.99272 -2.1903
f 18/35/6 14/25/6 15/26/6 19/36/6 

v 384.023 27.1292 -0
vt 2.50144 -2.1349
vn -0.460216 0.887807 -0
v 384.023 27.1292 -49.8125
vt 2.78803 -1.91882
f 20/37/7 18/35/7 19/36/7 21/38/7 

usemtl _1
v 384.023 -131.069 -0
vt 18.0073 -0.522638
vt 18.1104 -0.0615382
f 22/39/1 17/31/1 18/34/1 20/40/1 

v 299.349 -129.866 -0
vt 17.7732 -0.429382
vt 18.0192 -0.488078
vt 18.1223 -0.0269784
v 299.349 12.7075 -0
vt 17.8661 -0.0138255
f 23/41/1 22/42/1 20/43/1 24/44/1 

usemtl _2
vt 2.12884 -1.64074
vn -0.167902 0.985804 -0
v 299.349 12.7075 -49.8125
vt 2.41542 -1.42465
f 24/45/8 20/37/8 21/38/8 25/46/8 

v -0.838652 12.7075 -0
vt 0.826637 0.0863047
v -0.838652 12.7075 -49.8125
vt 1.11322 0.30239
f 26/47/2 24/45/2 25/46/2 27/48/2 

usemtl _1
v -0.838652 -126.971 -0
vt 16.7441 -0.441228
vt 17.6406 -0.454799
vt 17.643 -0.028986
vt 16.7464 -0.024061
f 28/49/1 23/50/1 24/51/1 26/52/1 

g Mesh2 Model

v 829.594 -159.121 4.625
vt 19.2278 -0.630038
v 900.969 -170.013 4.625
vt 19.4408 -0.663739
v 900.969 51.8792 4.625
vt 19.4444 -0.00103152
v 829.594 51.8792 4.625
vt 19.2312 0.000139484
f 29/53/1 30/54/1 31/55/1 32/56/1 

v 900.969 -170.013 -49.8125
vt 19.6033 -0.664633
v 900.969 51.8792 -49.8125
vt 19.607 -0.00192464
f 33/57/3 34/58/3 31/55/3 30/54/3 

usemtl _2
vt 5.89834 4.1429
v 829.594 51.8792 -49.8125
vt 5.48771 3.83328
vt 5.72386 3.52009
vt 6.13449 3.82971
f 34/59/2 35/60/2 32/61/2 31/62/2 

usemtl _1
vt 19.0686 0.0010326
vn -1 0 -0
v 829.594 -159.121 -49.8125
vt 19.0652 -0.629145
f 35/63/9 36/64/9 29/53/9 32/56/9 

g Mesh3 Model

v 962.129 -189.389 2.34482
vt 19.623 -0.852711
v 1033.5 -188.281 2.34482
vt 19.8361 -0.850573
v 1033.5 93.1114 2.34482
vt 19.8408 -0.0101609
v 962.129 93.1114 2.34482
vt 19.6276 -0.00898991
f 37/65/1 38/66/1 39/67/1 40/68/1 

v 1033.5 -188.281 -52.0927
vt 19.9987 -0.851466
v 1033.5 93.1114 -52.0927
vt 20.0033 -0.011054
f 41/69/3 42/70/3 39/67/3 38/66/3 

usemtl _2
vt 6.65096 4.73096
v 962.129 93.1114 -52.0927
vt 6.24032 4.42133
vt 6.47647 4.10814
vt 6.8871 4.41777
f 42/71/2 43/72/2 40/73/2 39/74/2 

usemtl _1
vt 19.465 -0.00809679
v 962.129 -189.389 -52.0927
vt 19.4604 -0.851818
f 43/75/9 44/76/9 37/65/9 40/68/9 

g Mesh4 Model

v 1290.83 -135.514 2.34482
vt 20.591 -0.832896
vn 5.3871e-16 2.46797e-17 1
v 1313.49 18.3302 2.34482
vt 20.5452 -0.370725
v 1337.06 134.325 2.34482
vt 20.5294 -0.0175591
v 1217.5 164.424 2.34482
vt 20.1612 -0.0170041
v 1177.13 48.4428 2.34482
vt 20.1283 -0.382308
v 1217.5 -135.514 2.34482
vt 20.3786 -0.886041
f 45/77/10 46/78/10 47/79/10 48/80/10 49/81/10 50/82/10 

vt 20.5652 -0.402539
vn 0.989325 -0.145729 1.05015e-16
vt 20.1811 -0.750876
v 1290.83 -135.514 -57.4677
vt 20.3151 -0.898611
v 1313.49 18.3302 -57.4677
vt 20.6992 -0.550274
f 46/83/11 45/84/11 51/85/11 52/86/11 

v 1367.98 46.7177 2.34482
vt 20.717 -0.264916
vn 0.462055 -0.886851 7.33338e-16
v 1367.98 46.7177 -57.4677
vt 20.8509 -0.412651
f 53/87/12 46/83/12 52/86/12 54/88/12 

vn 1.80564e-16 -1.33344e-16 1
v 1383.58 122.613 2.34482
vt 20.7031 -0.00691851
vt 20.5432 -0.0084672
f 46/83/13 53/87/13 55/89/13 47/90/13 

v 1442.8 17.4909 2.34482
vt 20.7502 -0.218895
vn -3.71498e-16 1.13921e-16 1
v 1464.13 -25.8886 2.34482
vt 20.9042 -0.305529
v 1521.07 20.7989 2.34482
vt 20.9792 -0.047069
vt 20.3543 -0.0245189
vt 20.4642 -0.28554
v 1402.54 46.7177 2.34482
vt 20.5684 -0.214065
f 56/91/14 57/92/14 58/93/14 55/94/14 53/95/14 59/96/14 

vt 14.6298 0.688113
vn -0.897383 -0.441252 2.8517e-16
vt 14.4487 0.53653
v 1442.8 17.4909 -57.4677
vt 14.6362 0.31244
v 1464.13 -25.8886 -57.4677
vt 14.8173 0.464024
f 57/97/15 56/98/15 60/99/15 61/100/15 

vn -0.587474 -0.809243 6.66028e-16
vt 14.2623 0.380525
v 1402.54 46.7177 -57.4677
vt 14.4498 0.156435
f 56/98/16 59/101/16 62/102/16 60/99/16 

vt 14.2334 0.689444
vn 0 -1 8.25282e-16
vt 14.1039 0.581064
vt 14.2915 0.356974
vt 14.421 0.465354
f 59/103/17 53/104/17 54/105/17 62/106/17 

v 1464.13 -236.826 -57.4677
vt 21.1025 -0.84414
v 1464.13 -236.826 2.34482
vt 21.2806 -0.830265
vt 21.2316 -0.20231
vt 21.0536 -0.216185
f 63/107/9 64/108/9 57/109/9 61/110/9 

vt 21.3903 -0.0501151
v 1586.19 -109.764 2.34482
vt 21.6144 -0.423688
v 1586.19 20.7989 2.34482
vt 21.5842 -0.0350076
f 58/111/1 57/109/1 64/108/1 65/112/1 66/113/1 

vt 16.4995 0.960285
vt 16.4985 0.322401
v 1586.19 -109.764 -57.4677
vt 16.7908 0.321942
v 1586.19 20.7989 -57.4677
vt 16.7918 0.959826
f 66/114/3 65/115/3 67/116/3 68/117/3 

usemtl _2
vt 9.91525 6.70101
vn -2.72761e-17 1 -2.96988e-17
vt 10.2899 6.98352
vt 10.0305 7.32764
v 1521.07 20.7989 -57.4677
vt 9.65579 7.04513
f 58/118/18 66/119/18 68/120/18 69/121/18 

vt 8.931 5.95888
vn 0.595136 0.803625 -1.88598e-16
v 1383.58 122.613 -57.4677
vt 8.67154 6.303
f 55/122/19 58/118/19 69/121/19 70/123/19 

vt 8.655 5.75077
vn 0.244132 0.969742 -2.05213e-16
v 1217.5 164.424 -57.4677
vt 7.68623 5.56007
vt 7.9457 5.21595
f 47/124/20 55/122/20 70/123/20 71/125/20 48/126/20 

v 1115.57 164.424 2.34482
vt 7.35923 4.77375
vn 0 1 -1.99735e-16
v 1115.57 164.424 -57.4677
vt 7.09976 5.11786
f 72/127/21 48/126/21 71/125/21 73/128/21 

usemtl _1
v 1115.57 93.1114 2.34482
vt 20.0823 -0.230708
vn -1.85179e-16 4.1225e-16 1
vt 20.2654 -0.365126
vt 20.3879 -0.0193964
vt 20.0835 -0.017724
f 74/129/22 49/130/22 48/131/22 72/132/22 

vn -0.587262 -0.809397 1.89379e-16
v 1115.57 93.1114 -57.4677
vt 19.9766 -0.374719
v 1177.13 48.4428 -57.4677
vt 20.1597 -0.509137
f 49/130/23 74/129/23 75/133/23 76/134/23 

vn -1 0 4.71926e-17
vt 19.9048 -0.0167427
vt 19.9037 -0.229726
f 74/129/24 72/132/24 73/135/24 75/136/24 

vn -0.976753 -0.214367 -2.13149e-17
vt 19.9683 -0.4618
v 1217.5 -135.514 -57.4677
vt 20.2186 -0.965533
f 50/82/25 49/81/25 76/137/25 77/138/25 

g Mesh5 Model

v 1659.38 -96.6386 -1.34268
vt 19.6882 -0.834925
v 1711.07 -108.514 -1.34268
vt 19.9227 -0.891972
v 1711.07 84.7989 -1.34268
vt 19.9339 -0.0122359
v 1659.38 84.7989 -1.34268
vt 19.6987 -0.00923095
f 78/139/1 79/140/1 80/141/1 81/142/1 

v 1711.07 -108.514 -57.4677
vt 20.1781 -0.895235
v 1711.07 84.7989 -57.4677
vt 20.1894 -0.0154988
f 82/143/3 83/144/3 80/141/3 79/140/3 

usemtl _2
vt 12.9066 9.49623
v 1659.38 84.7989 -57.4677
vt 12.6092 9.27201
vt 12.8527 8.94912
vt 13.15 9.17333
f 83/145/2 84/146/2 81/147/2 80/148/2 

usemtl _1
vt 19.4433 -0.00596804
v 1659.38 -96.6386 -57.4677
vt 19.4328 -0.831663
f 84/149/9 85/150/9 78/139/9 81/142/9 

g Mesh6 Model

usemtl _2
v 2995.82 180.424 -57.4677
vt 15.2754 11.2824
v 2824.69 180.424 -57.4677
vt 14.2909 10.5401
v 2824.69 180.424 -5.03018
vt 14.5184 10.2384
v 2995.82 180.424 -5.03018
vt 15.5029 10.9807
f 86/151/2 87/152/2 88/153/2 89/154/2 

usemtl _1
vt 22.4557 -0.0119425
v 2824.69 -25.8886 -57.4677
vt 22.4523 -0.628119
v 2824.69 -140.895 -5.03018
vt 22.607 -0.972461
vt 22.6123 -0.0128028
f 87/155/9 90/156/9 91/157/9 88/158/9 

v 2824.69 -174.014 -57.4677
vt 22.4499 -1.07051
v 2824.69 -174.014 -5.03018
vt 22.6065 -1.07137
f 90/156/9 92/159/9 93/160/9 91/157/9 

v 2995.82 -140.895 -5.03018
vt 23.1181 -0.975268
vt 23.1234 -0.0156103
f 91/157/1 94/161/1 89/162/1 88/158/1 

v 3199.13 92.0489 -5.03018
vt 23.4228 -0.0279857
vt 22.7369 -0.00597931
vt 23.1039 -0.930427
v 3199.13 -115.951 -5.03018
vt 23.6604 -0.62641
f 95/163/1 89/164/1 94/165/1 96/166/1 

usemtl _2
v 3199.13 92.0489 -57.4677
vt 16.5509 12.2441
vn 0.398644 0.917106 -0
vt 16.7783 11.9424
f 97/167/26 86/151/26 89/154/26 95/168/26 

v 3337.75 41.1739 -57.4677
vt 17.4004 12.8846
vn 0.344528 0.938776 9.92765e-17
f 98/169/27 97/167/27 95/168/27

v 3337.75 41.1739 -5.03018
vt 17.6279 12.583
f 98/169/27 95/168/27 99/170/27

usemtl _1
vt 23.8797 -0.0159982
v 3337.75 -92.7636 -5.03018
vt 24.0327 -0.401341
f 99/171/1 95/163/1 96/166/1 100/172/1 

v 3490.13 41.1739 -5.03018
vt 24.6246 -0.0154144
vt 24.1696 -0.0129144
vt 24.1674 -0.412934
v 3490.13 -104.826 -5.03018
vt 24.6222 -0.45146
f 101/173/1 99/174/1 100/175/1 102/176/1 

usemtl _2
vt 17.2427 12.7657
vt 17.4702 12.464
vt 18.3468 13.125
v 3490.13 41.1739 -57.4677
vt 18.1193 13.4267
f 98/177/2 99/178/2 101/179/2 103/180/2 

v 3678.38 41.1739 -57.4677
vt 19.2024 14.2433
v 3678.38 41.1739 -5.03018
vt 19.4298 13.9416
f 104/181/2 103/180/2 101/179/2 105/182/2 

usemtl _1
v 3678.38 -93.5136 -5.03018
vt 25.1846 -0.420763
vt 25.1869 -0.0185028
f 102/176/1 106/183/1 105/184/1 101/173/1 

v 3678.38 424.486 -5.03018
vt 25.1646 0.970077
vn 7.79884e-18 4.03657e-17 1
vt 25.1607 0.270569
vt 25.1594 0.0247781
v 3857.71 -74.8713 -5.03018
vt 25.4868 0.0570007
v 3793.1 136.187 -5.03018
vt 25.371 0.442809
v 3842.71 262.008 -5.03018
vt 25.4628 0.671923
v 3938.12 306.438 -5.03018
vt 25.6374 0.752046
v 3998.02 274.507 -5.03018
vt 25.7464 0.693175
v 4093.44 174.643 -5.03018
vt 25.9195 0.509976
v 4093.44 425.299 -5.03018
vt 25.922 0.967398
f 107/185/28 105/186/28 106/187/28 108/188/28 109/189/28 110/190/28 111/191/28 112/192/28 113/193/28 114/194/28 

vt 25.065 0.271095
f 107/185/9 104/195/9 105/186/9

v 3678.38 424.486 -57.4677
vt 25.0689 0.970602
f 107/185/9 115/196/9 104/195/9

usemtl _2
vt -19.5002 21.4888
vn -0.00195753 0.999998 -1.47452e-18
vt -18.0013 18.8734
vt -17.6996 19.1009
f 114/197/29 115/198/29 107/199/29

vn -0.00195753 0.999998 -2.90284e-16
v 4093.44 425.299 -57.4677
vt -19.8018 21.2613
f 114/197/30 116/200/30 115/198/30

usemtl _1
v 4093.44 174.643 -57.4677
vt 26.0152 0.50945
vt 26.0177 0.966873
f 113/193/3 117/201/3 116/202/3 114/194/3 

vt 25.9093 0.615921
vn -0.723 -0.690848 -1.10229e-16
vt 25.7361 0.799121
v 3998.02 274.507 -57.4677
vt 25.6666 0.733392
vt 25.8397 0.550193
f 113/203/31 112/204/31 118/205/31 117/206/31 

vn -0.470436 -0.882434 9.37765e-17
vt 25.6272 0.857992
v 3938.12 306.438 -57.4677
vt 25.5817 0.773797
vt 25.6907 0.714926
f 112/204/32 111/207/32 119/208/32 118/209/32 

vn 0.422136 -0.906533 1.96301e-16
vt 25.4526 0.777868
v 3842.71 262.008 -57.4677
vt 25.4925 0.690898
vt 25.6671 0.771022
f 111/207/33 110/210/33 120/211/33 119/212/33 

vn 0.930284 -0.36684 1.63285e-16
vt 25.3608 0.548755
v 3793.1 136.187 -57.4677
vt 25.4496 0.513162
vt 25.5414 0.742276
f 110/210/34 109/213/34 121/214/34 120/215/34 

vn 0.9562 0.292714 1.66474e-15
vt 25.4766 0.162946
v 3842.71 -25.8886 -57.4677
vt 25.5414 0.279993
vt 25.4525 0.576263
f 109/213/35 108/216/35 122/217/35 121/218/35 

g Mesh7 Model

usemtl _2
v 6233.78 363.451 -58.2305
vt 25.5673 19.0494
v 5091.72 363.451 -58.2305
vt 18.9968 14.0952
v 5091.72 363.451 -3.79299
vt 19.2329 13.782
v 6233.78 363.451 -3.79299
vt 25.8035 18.7363
f 123/219/2 124/220/2 125/221/2 126/222/2 

usemtl _1
vt 23.1202 0.988017
v 5091.72 212.669 -58.2305
vt 23.1197 0.693036
v 5091.72 212.669 -3.79299
vt 23.2262 0.692869
vt 23.2267 0.98785
f 124/223/9 127/224/9 128/225/9 125/226/9 

v 5190.74 245.491 -3.79299
vt 11.9863 11.3214
vn 0.314656 -0.949206 -5.44145e-18
vt 11.986 11.1174
vt 12.0925 11.1172
v 5190.74 245.491 -58.2305
vt 12.0928 11.3213
f 129/227/36 128/228/36 127/229/36 130/230/36 

vn 1.91809e-17 -3.16306e-17 1
vt 23.42 0.756777
v 5301.59 216.568 -3.79299
vt 23.6368 0.699851
v 5364.5 124.364 -3.79299
vt 23.7596 0.519276
v 5364.5 -25.9993 -3.79299
vt 23.7592 0.225115
v 6233.78 -25.7537 -3.79299
vt 25.4597 0.222925
vt 25.4609 0.98434
f 125/226/37 128/225/37 129/231/37 131/232/37 132/233/37 133/234/37 134/235/37 126/236/37 

vt 11.9366 -10.895
vn -0.252471 -0.967605 -8.29399e-18
vt 11.9369 -10.6709
vt 11.8304 -10.6707
v 5301.59 216.568 -58.2305
vt 11.8301 -10.8948
f 131/237/38 129/238/38 130/239/38 135/240/38 

vt 11.9545 0.537817
vn -0.826013 -0.563651 -0
vt 11.9549 0.756194
vt 11.8484 0.756362
v 5364.5 124.364 -58.2305
vt 11.848 0.537985
f 132/241/39 131/242/39 135/243/39 136/244/39 

vt 11.9541 0.243654
v 5364.5 -25.9993 -58.2305
vt 11.8476 0.243822
f 133/245/9 132/241/9 136/244/9 137/246/9 

vt 23.6241 0.987225
vt 23.6229 0.225809
v 6233.78 -25.7537 -58.2305
vt 23.7294 0.225642
vt 23.7306 0.987058
f 126/247/3 134/248/3 138/249/3 123/250/3 

g Mesh8 Model

v 1983.98 -146.076 -5.03018
vt 22.6069 -0.993534
v 2031.23 -146.076 -5.03018
vt 22.748 -0.994309
v 2031.23 182.299 -5.03018
vt 22.7534 -0.013578
v 1983.98 182.299 -5.03018
f 139/251/1 140/252/1 141/253/1 142/158/1 

v 2031.23 -147.951 -57.4677
vt 23.2746 -1.0028
v 2031.23 182.299 -57.4677
vt 23.28 -0.0164706
vt 23.118 -0.996341
v 2031.23 -147.951 -5.03018
vt 23.118 -1.00194
f 143/254/3 144/255/3 141/162/3 140/256/3 145/257/3 

usemtl _2
vt 14.5628 10.745
v 1983.98 182.299 -57.4677
vt 14.7902 10.4433
f 144/258/2 146/152/2 142/153/2 141/259/2 

usemtl _1
v 1983.98 -146.076 -57.4677
vt 22.4503 -0.992673
f 146/155/9 147/260/9 139/251/9 142/158/9 

g Mesh9 Model

usemtl _2
v 3413.94 185.216 -5.03018
vt -18.6625 -14.7803
vn 0.349909 -0.936784 -4.09967e-17
v 3490.13 213.674 -57.4677
vt -19.3579 -14.8314
v 3490.13 213.674 -5.03018
vt -19.1304 -15.1331
f 148/261/40 149/262/40 150/263/40

v 3413.94 185.216 -57.4677
vt -18.89 -14.4786
vn 0.349909 -0.936784 8.19935e-17
f 151/264/41 149/262/41 148/261/41

usemtl FrontColor
v 3490.13 1005.31 -57.4677
vt 3490.13 1005.31
v 3413.94 1005.31 -57.4677
vt 3413.94 1005.31
vt 3413.94 185.216
vt 3490.13 213.674
f 152/265/1 153/266/1 151/267/1 149/268/1 

vt 3490.13 57.4677
vt 3413.94 57.4677
v 3413.94 1005.31 -5.03018
vt 3413.94 5.03018
v 3490.13 1005.31 -5.03018
vt 3490.13 5.03018
f 152/269/2 153/270/2 154/271/2 155/272/2 

usemtl _1
vt 24.5854 0.243325
vt 24.5912 1.00312
vt 24.5426 1.00349
vt 24.5368 0.243699
f 153/273/9 151/274/9 148/275/9 154/276/9 

vt 24.4662 0.244242
vt 24.4719 0.977672
f 155/277/1 154/276/1 148/275/1 150/278/1 

vt 24.4176 0.244615
vt 24.4233 0.978046
f 152/279/3 155/277/3 150/278/3 149/280/3 

